<?xml version="1.0" encoding="UTF-8"?>
<svg id="Layer_1" data-name="Layer 1" xmlns="http://www.w3.org/2000/svg" viewBox="0 0 375 831">
  <defs>
    <style>
      .cls-1 {
        fill: #8dc63f;
      }

      .cls-2 {
        font-size: 15.65px;
      }

      .cls-2, .cls-3, .cls-4, .cls-5, .cls-6, .cls-7, .cls-8 {
        fill: #231f20;
      }

      .cls-2, .cls-3, .cls-5, .cls-6, .cls-7, .cls-8 {
        font-family: Arial-Black, 'Arial Black';
        font-weight: 800;
      }

      .cls-3 {
        font-size: 12.9px;
      }

      .cls-9 {
        letter-spacing: 0em;
      }

      .cls-10 {
        letter-spacing: 0em;
      }

      .cls-4 {
        font-family: MyriadPro-Regular, 'Myriad Pro';
        font-size: 16px;
      }

      .cls-11 {
        fill: #c76971;
      }

      .cls-12 {
        fill: #e2844f;
      }

      .cls-13 {
        fill: none;
        stroke: #231f20;
        stroke-miterlimit: 10;
        stroke-width: 2px;
      }

      .cls-5 {
        font-size: 15.08px;
      }

      .cls-6 {
        font-size: 15.71px;
      }

      .cls-14 {
        letter-spacing: -.01em;
      }

      .cls-15 {
        letter-spacing: -.05em;
      }

      .cls-16 {
        letter-spacing: 0em;
      }

      .cls-17 {
        letter-spacing: 0em;
      }

      .cls-7 {
        font-size: 14.3px;
      }

      .cls-8 {
        font-size: 16.83px;
      }

      .cls-18 {
        fill: #009444;
      }

      .cls-19 {
        fill: #fff200;
      }

      .cls-20 {
        letter-spacing: 0em;
      }

      .cls-21 {
        letter-spacing: 0em;
      }
    </style>
  </defs>
  <line class="cls-13" x1="1" y1="829.11" x2="1" y2="42.09"/>
  <polygon class="cls-18" points="372.27 829.11 8.09 829.11 1 829.11 372.27 620.78 372.27 829.11"/>
  <polygon class="cls-19" points="1 829.11 372.27 620.78 375 42.09 1 829.11"/>
  <polygon class="cls-11" points="1 829.11 375 42.09 1 42.09 1 829.11"/>
  <polygon class="cls-1" points="1 829.11 372.27 724.95 372.27 620.78 1 829.11"/>
  <polygon class="cls-12" points="1 829.11 373.63 332.52 375 42.09 1 829.11"/>
  <path class="cls-13" d="M1,829.11S42.63,218.85,39.9,130.47"/>
  <path class="cls-13" d="M1,829.11S64.47,189.39,63.79,98.9"/>
  <path class="cls-13" d="M1,829.11S112.24,176.77,110.2,79.97"/>
  <path class="cls-13" d="M1,829.11S338.15,300.92,351.8,216.75"/>
  <path class="cls-13" d="M1,829.11s294.83-90.49,320.08-134.68"/>
  <path class="cls-13" d="M1,829.11s337.15,6.31,354.21-14.73"/>
  <polyline class="cls-13" points="1 42.09 1 829.11 372.27 829.11"/>
  <text class="cls-2" transform="translate(19.23 121.9) scale(.71 1)"><tspan x="0" y="0">O(n!)</tspan></text>
  <text class="cls-7" transform="translate(55.61 92.48) scale(.59 1)"><tspan x="0" y="0">O(2 ^n)</tspan></text>
  <text class="cls-3" transform="translate(115.14 73.2) scale(.75 1)"><tspan x="0" y="0">O(n^2)</tspan></text>
  <text class="cls-8" transform="translate(318.77 205.19) scale(.56 1)"><tspan x="0" y="0">O(n log n)</tspan></text>
  <text class="cls-5" transform="translate(314 683.63) scale(.73 1)"><tspan x="0" y="0">O(n)</tspan></text>
  <text class="cls-6" transform="translate(319.19 803.48) scale(.47 1)"><tspan x="0" y="0">O(1), O(log n)</tspan></text>
  <rect class="cls-18" x="1" width="66.72" height="33.67"/>
  <rect class="cls-1" x="76.86" width="66.72" height="33.67"/>
  <rect class="cls-19" x="149.86" width="66.72" height="33.67"/>
  <rect class="cls-12" x="222.86" width="66.72" height="33.67"/>
  <rect class="cls-11" x="298.72" width="76.28" height="33.67"/>
  <text class="cls-4" transform="translate(13.61 22.11) scale(.69 1)"><tspan x="0" y="0">E</tspan><tspan class="cls-14" x="7.87" y="0">x</tspan><tspan class="cls-16" x="15.04" y="0">c</tspan><tspan class="cls-9" x="22.11" y="0">elle</tspan><tspan class="cls-17" x="45.7" y="0">n</tspan><tspan x="54.51" y="0">t</tspan></text>
  <text class="cls-4" transform="translate(164.96 24.21) scale(1.1 1)"><tspan class="cls-15" x="0" y="0">F</tspan><tspan x="7.07" y="0">air</tspan></text>
  <text class="cls-4" transform="translate(243.44 21.93) scale(1.12 1)"><tspan x="0" y="0">Bad</tspan></text>
  <text class="cls-4" transform="translate(309.86 22.27) scale(.8 1)"><tspan x="0" y="0">Ho</tspan><tspan class="cls-21" x="19.22" y="0">rr</tspan><tspan x="29.81" y="0">ible</tspan></text>
  <text class="cls-4" transform="translate(96.77 24.38)"><tspan class="cls-20" x="0" y="0">G</tspan><tspan class="cls-10" x="10.42" y="0">ood</tspan></text>
</svg>